<?xml version="1.0" standalone="no"?>
<!DOCTYPE svg PUBLIC "-//W3C//DTD SVG 20010904//EN"
        "http://www.w3.org/TR/2001/REC-SVG-20010904/DTD/svg10.dtd">
<svg version="1.0" xmlns="http://www.w3.org/2000/svg"
     width="700.000000pt" height="700.000000pt" viewBox="0 0 700.000000 700.000000"
     preserveAspectRatio="xMidYMid meet">
    <metadata>
        Created by potrace 1.14, written by Peter Selinger 2001-2017
    </metadata>
    <g transform="translate(0.000000,700.000000) scale(0.100000,-0.100000)"
       fill="#000000" stroke="none">
        <path d="M0 3500 l0 -3500 3500 0 3500 0 0 3500 0 3500 -3500 0 -3500 0 0
-3500z m1803 2461 c66 -12 122 -23 126 -25 7 -5 -43 -403 -51 -411 -2 -2 -26
1 -53 7 -28 5 -97 10 -155 11 -212 4 -272 -58 -287 -293 -3 -56 6 -291 22
-570 29 -517 27 -605 -16 -761 -42 -153 -133 -271 -257 -337 l-63 -34 80 -40
c147 -73 223 -177 256 -353 28 -147 27 -238 -5 -745 -34 -524 -35 -672 -5
-770 44 -144 130 -185 334 -161 53 6 105 12 116 14 18 2 21 -13 47 -203 14
-113 24 -208 20 -212 -17 -16 -213 -40 -368 -45 -246 -8 -358 17 -507 115
-111 72 -203 203 -243 347 -28 103 -27 285 5 831 33 562 32 637 -14 782 -40
125 -104 184 -238 218 l-67 16 0 205 c0 154 3 205 13 207 6 2 42 12 79 21 133
34 191 95 229 241 32 124 34 282 9 779 -12 250 -20 497 -17 555 20 353 215
578 547 629 94 14 327 5 463 -18z m3940 0 c280 -73 444 -286 464 -601 3 -52
-5 -304 -17 -560 -25 -509 -23 -660 10 -784 26 -104 58 -157 117 -194 47 -29
125 -58 173 -64 l25 -3 3 -206 2 -206 -67 -17 c-134 -34 -198 -92 -238 -218
-46 -145 -47 -221 -15 -778 17 -278 30 -554 30 -615 0 -250 -96 -455 -267
-568 -144 -96 -262 -122 -507 -114 -155 5 -351 29 -368 45 -4 4 6 99 20 212
26 190 29 205 47 203 11 -2 63 -8 116 -14 204 -24 290 17 334 161 30 100 29
247 -5 770 -32 507 -33 598 -5 745 24 127 51 183 124 256 46 46 89 77 139 101
l74 36 -62 33 c-127 68 -226 199 -264 352 -39 150 -40 234 -11 752 16 279 25
527 21 575 -15 226 -77 287 -286 283 -58 -1 -127 -6 -155 -11 -27 -6 -51 -9
-53 -7 -7 7 -58 406 -52 410 10 6 169 34 250 44 118 15 332 6 423 -18z m-2733
-937 l0 -606 43 37 c56 49 203 120 302 147 69 19 106 22 270 22 164 1 202 -2
278 -22 401 -101 656 -398 743 -867 16 -83 19 -147 19 -375 -1 -298 -15 -425
-71 -619 -134 -464 -420 -726 -879 -807 -120 -21 -408 -24 -560 -5 -269 33
-599 121 -712 191 l-33 20 0 1494 0 1495 -22 26 c-27 31 -78 44 -168 45 -120
1 -110 -19 -110 221 l0 209 450 0 450 0 0 -606z"/>
        <path d="M3370 4169 c-133 -23 -275 -122 -327 -228 l-28 -56 -3 -712 -3 -711
78 -30 c113 -44 222 -64 353 -65 182 -2 286 38 390 150 143 153 210 405 210
791 0 263 -29 430 -100 578 -88 182 -227 275 -430 288 -47 3 -110 1 -140 -5z"/>
    </g>
</svg>
