<svg viewBox="0 0 592.8 150.2" xmlns="http://www.w3.org/2000/svg">
    <path d="m64.1 90.7h-47.4a6.7 6.7 0 0 1 -6.3-5.9 70.3 70.3 0 0 1 -.4-8c-.1-21-.1-41.9 0-62.9a54.7 54.7 0 0 1 .3-7c.4-4.1 3-6.5 7.1-6.7h91.4c3.5 0 6.5.5 8.5 3.8a11.2 11.2 0 0 1 1.3 6.2v68.7c0 1.4 0 2.7-.1 4-.4 4.9-3 7.6-7.9 7.7-8.2.2-16.3.1-24.5.1zm.4-84.6h-45.4c-3.3 0-3.8.5-4 3.7a20.9 20.9 0 0 0 0 2.5c-.1 22-.1 43.9 0 65.9a26.8 26.8 0 0 0 .2 4 2.2 2.2 0 0 0 2.3 2.2h90.3c4.9 0 4.9-.1 5-5v-68c0-1-.1-2-.1-3s-.6-2.5-2.3-2.4h-46zm-.1 82.4h.6c1-.3 2.7.6 2.8-1s-1.6-1.2-2.7-1.3-.4-.1-.5 0-3.6-.8-3.5 1.4 2.2.6 3.3.9z"/>
    <g fill="#305f7c">
        <path d="m169.8 50.7v31.5a47.3 47.3 0 0 1 -.5 7.5 3.8 3.8 0 0 1 -3.2 3.3c-2 .4-2.7-1-3.3-2.4s-1.6-4.6-2.2-7c-1.7-7.1-3.5-14.1-5.2-21.1s-3.6-13.1-4.6-19.8c-.5-3.1-2.4-5.8-2.4-9.1 0-1.1-.4-3.1-2.1-2.8s-.8 1.9-.8 3c-.1 4.6-.1 9.3-.1 14v40.4c0 1.4.7 3.2-1.3 4s-4.2-.2-4.2-2.9v-29.5c0-13 .1-26-.1-39a18.3 18.3 0 0 1 2.2-8.6c1.3-2.6 2.7-2.7 4.8-.5.6.6 1.4 1 1.5 1.9.5 4 2.2 7.6 3 11.5 1.8 7.6 3.7 15.1 5.6 22.6s3.3 13.2 4.6 19.8c.4 2 .6 5.1 2.6 4.9s1.3-3.3 1.3-5.1c.1-16.8.1-33.6.1-50.4 0-1.4 0-2.7.1-4s1.1-1.5 2.2-1.5 1.7.4 1.8 1.4.2 2.6.2 4z"/>
        <path d="m558.7 63.9v-21c0-1-.1-2 0-3 .8-9.3 2.4-8.7 8.8-8.6h15c6.2-.1 8.4 2.3 9.8 9a49 49 0 0 1 .5 9.4v37a27.5 27.5 0 0 1 -.2 4 1.8 1.8 0 0 1 -2.2 1.5 1.6 1.6 0 0 1 -1.6-1.6c-.1-1.3-.1-2.6-.1-3.9v-37c0-2.5-.1-5-1.9-7a5.7 5.7 0 0 0 -4.7-2.3c-3 0-3.9.6-4.2 3.6a26.7 26.7 0 0 0 -.1 4v39a25.6 25.6 0 0 1 -.3 3.9c-.1.9-.9 1.3-1.9 1.3a1.5 1.5 0 0 1 -1.7-1.4 25.5 25.5 0 0 1 -.2-3.9v-40c0-1.3 0-2.7-.1-4a2.5 2.5 0 0 0 -2.6-2.5h-4a3.4 3.4 0 0 0 -3.8 3.2 49 49 0 0 0 -.4 5.4v38a25.6 25.6 0 0 1 -.3 3.9 1.7 1.7 0 0 1 -1.9 1.3 1.5 1.5 0 0 1 -1.7-1.4 19.4 19.4 0 0 1 -.2-3.4z"/>
        <path d="m499.9 51.8c0-6.7-.4-13.4.1-20a36.3 36.3 0 0 1 4.8-16 8.3 8.3 0 0 1 8.2-4.5h9c1.9 0 2.5.9 2.7 2.7.7 8.1.6 8.2-7.7 8.3s-10.6 2.4-11.2 9.6-2.3 14.1-2.2 21.3 1.5 12.9 2.2 19.3 4.9 8.8 10.8 8.9h6c.6 0 1.5-.1 1.9.3 2.2 2.2.9 5 1.1 7.6a2.7 2.7 0 0 1 -2.7 3c-4 0-8 .3-11.9-.2s-6.8-3.8-8.2-7.8c-2.9-8-3.3-16.2-3.3-24.5v-8z"/>
        <path d="m247.7 50.4c0-11.6-.1-23.3 0-34.9 0-1.6-.9-4.1 2.1-4s1.8 2.4 1.8 3.8c.1 4 .2 8 0 12s1.2 3.7 3.5 3.9h3.5c3.8.2 6.5 1.8 7.9 5.6a35.1 35.1 0 0 1 2.2 10.2c.3 5.8.9 11.6.9 17.4a167.7 167.7 0 0 1 -1.4 17.4c-.8 8.4-8.6 13-16.7 10.3-2.1-.7-3.8-2.1-3.7-4.7s-.1-3.7-.1-5.5zm17.7 11.5c.6-3.9-.8-7.8-.7-11.8s-1.3-4.7-2.2-7-4.8-3.4-8.4-2.6-2.4 3.1-2.4 5.2c-.1 10.4 0 20.9 0 31.4a7.5 7.5 0 0 0 0 1.5c.3 3.2 1.7 4.6 5.1 4.7s7.2-2.5 7.6-7.4 1.6-9.2 1-14z"/>
        <path d="m430.8 50.8v30.5c0 2-.1 4-.2 5.9-.3 4.2-1 5-5.1 5.1a54.5 54.5 0 0 1 -7 0c-2.8-.2-5-1.3-5.9-4.3s-2.9-8.1-2.9-12.5c-.1-8.3-.3-16.6-.1-24.9a42 42 0 0 1 2.2-13.2c1.5-4 3.8-5.8 8.1-6.1 6.8-.4 6.8-.4 6.8-7.4v-10c0-1.2.1-2.4 1.7-2.5s2.3.9 2.4 2.5zm-4.1 11v-17.5c0-1.3 0-2.7-1.3-3.5-3-1.8-8.6 0-9.9 3.3s-2.1 5.8-1.9 9.1c.2 5.8.2 11.6-.1 17.4-.1 3.3 1 6.2 2.1 9.1s4.3 4.1 7.5 3.5 3.5-1.7 3.6-5.5z"/>
        <path d="m220.8 62.3c0-4 .1-8-.1-12s1-8.8 2.4-13c.8-2.6 2.5-4 4.7-5.4 5.5-3.5 12 .3 13.6 6.1 2 7.6 1.5 15.5 1.1 23.2-.2 4.1-1.2 4.8-5.2 4.8h-9c-3.3.1-3.6.3-3.6 3.8a20.6 20.6 0 0 0 1.4 8.8c1.8 3.9 2.3 4.5 6.5 4.6h7.5c1.7 0 2.5.7 2.4 2.4a3.4 3.4 0 0 0 .1 1c.2 5.5.1 5.6-5.3 5.7h-6.5c-4.7-.2-6.4-1.5-8-5.9a36.3 36.3 0 0 1 -2.1-14.2c.1-3.3 0-6.7 0-10zm10.6-5.9h5a2.2 2.2 0 0 0 2.2-1.7c.5-4.2.6-8.4-1.9-12.1s-8.3-2.8-9.7.4a24.9 24.9 0 0 0 -2.2 6.5c-1 6-.1 7 6.1 7z"/>
        <path d="m435.6 61.9c.1-7-.4-14 1.2-20.9.8-3.6 2.1-6.8 5.5-9s9.6-.8 12 2.2a14.4 14.4 0 0 1 3 7.3 120.2 120.2 0 0 1 .2 19.9c-.4 3.8-1.2 4.6-5 4.6h-10c-2.1-.1-2.9.9-3 3a36.4 36.4 0 0 0 1.4 9.9 5.4 5.4 0 0 0 5.4 4.3h8.5c2 0 2.7.8 2.6 2.7s.1 2 0 3c-.1 3.1-.2 3.2-3.5 3.4s-4.7-.1-7 0c-6 .2-8.8-1.9-10.1-9.1s-1.3-14.1-1.2-21.3zm10.4-5.5h3.5c3.5-.2 3.9-.7 4.2-4.1a15.6 15.6 0 0 0 -1.9-9c-2.3-4-7-4.2-9.7-.4a14.3 14.3 0 0 0 -2.3 5.9c-1.2 6.8-.5 7.6 6.2 7.6z"/>
        <path d="m404.7 52.4c0 2.7.1 5.3-.1 8-.3 4.9-1.1 5.6-6 5.6h-8.9c-2.1-.1-3 .9-3.1 3a24.9 24.9 0 0 0 2 11.1 4.9 4.9 0 0 0 4.7 3.1c2.6 0 5.3.1 8 0s3.5.6 3.3 3.1a7.5 7.5 0 0 0 0 1.5c-.1 4.4-.1 4.4-4.5 4.5h-8.5a6.3 6.3 0 0 1 -6.3-4.6c-1.3-4.3-2.7-8.4-2.6-13.1.3-8.1.2-16.3 0-24.4a35.8 35.8 0 0 1 2.5-13 9.7 9.7 0 0 1 9.4-6.6c4.1.1 7.7 3.3 8.8 7.5a49.2 49.2 0 0 1 1.3 14.3zm-11 4c1.5 0 3 .1 4.5 0a2.2 2.2 0 0 0 2.4-2c.5-3.8.5-7.7-1.5-11.2s-8.3-3.9-10.3 0a26.4 26.4 0 0 0 -1.9 5.6c-1.4 6.2-.2 7.7 6.3 7.7z"/>
        <path d="m529.7 62.1c0-3.8.1-7.7 0-11.5s.9-9.1 2.5-13.5a9.5 9.5 0 0 1 8.9-6.6 9.3 9.3 0 0 1 10.1 6 32.1 32.1 0 0 1 2.4 10.6c.4 5.9 1.3 11.8.9 17.8s-.5 10.7-1.3 15.9a21.8 21.8 0 0 1 -3 8.3c-2.1 3.4-5.6 4.4-9.5 4.1s-6.5-2-7.8-5.3-3.4-8.2-3.2-12.8.1-8.7.1-13zm4-.2c0 5.8-.7 11.6 1.8 17.1 1.2 2.7 3 4.4 5.9 4.7a5.6 5.6 0 0 0 5.9-3 25.4 25.4 0 0 0 2.2-6 74.1 74.1 0 0 0 .8-18.8c-.5-4.1-.3-8.2-2.4-12.1-1.4-2.4-3.2-3.9-5.8-4a6 6 0 0 0 -6 3.6c-1.2 2.7-2.5 5.4-2.5 8.6s.1 6.6.1 9.9z"/>
        <path d="m175.8 61.5c0-3 .2-6.1 0-9-.4-5.1 1.2-9.9 2.6-14.6 1.9-6.3 7.8-9.3 13.7-7.1a8.2 8.2 0 0 1 4.1 3.4c1.5 3.1 3 6.1 3.5 9.7 1 7.8.8 15.6 1 23.4.1 5.1-.8 10-1.5 14.9a15.4 15.4 0 0 1 -4 8.3c-4.6 4.8-14.2 3.4-16.6-4-1.5-4.7-3.1-9.4-2.8-14.6.2-3.4 0-7 0-10.4zm4 .4a39.3 39.3 0 0 0 1.6 15.9c1.1 3.3 3.3 5.6 6.1 5.9s4.7-.9 6.5-4.2a17.8 17.8 0 0 0 1.9-5c1.4-7 .8-13.9.6-20.9a18.4 18.4 0 0 0 -2.6-9.9c-1.7-3-3.5-4.2-6.2-3.9a7.9 7.9 0 0 0 -6.2 5.7 41.1 41.1 0 0 0 -1.7 16.4z"/>
        <path d="m273.6 61.5c-.1-6.8-.2-13.6 1.1-20.3a17 17 0 0 1 3.8-8 10.1 10.1 0 0 1 16.8 4.1 48.7 48.7 0 0 1 3 14.6c.2 6.6.2 13.3 0 19.9a47.9 47.9 0 0 1 -3.2 15 8.8 8.8 0 0 1 -8.1 6.3c-4.6.4-7.9-1-10.2-5.2s-2.8-9.2-3.1-13.9-.1-8.3-.1-12.5zm3.9.4v8a12.1 12.1 0 0 0 .1 1.9c0 3.5 1.4 6.5 3.1 9.3s6.2 3.5 9.1 1.1a9 9 0 0 0 2.8-5.1 63.8 63.8 0 0 0 0-31c-.8-3.6-3.7-6.3-6.6-6.4s-6.1 2.4-7.2 5.9a8 8 0 0 0 -.3 1.5c-1.6 4.8-.9 9.8-1 14.8z"/>
        <path d="m326.6 61.9c0 6.6.4 13.2-1 19.8a26.4 26.4 0 0 1 -1.9 5.6c-2 4.5-5.4 6.2-10.3 5.9s-7.1-3.1-8.4-6.7a52.2 52.2 0 0 1 -3.1-14.5c-.2-5.4.2-10.7-.1-16s1.4-10.8 2.3-16.2c.2-1.7 1.2-3.3 2.1-5 3-6.1 14.1-5.9 17.2.7 2.2 4.5 2.7 9.2 3.1 13.9s.1 8.3.1 12.5zm-3.9.2c0-3.5.1-7 0-10.5a15.8 15.8 0 0 0 -3.4-9.6c-2.5-3-5.8-3.2-8.8-.7a8.3 8.3 0 0 0 -3.1 6 21.2 21.2 0 0 1 -.6 4.4c-2.3 8.8-.7 17.5 1 26.1a7.7 7.7 0 0 0 2.5 4.2c3 2.7 7.3 2.3 9.4-1.1a18 18 0 0 0 3-9.3z"/>
    </g>
    <path d="m63.8 97.4h-58a26.8 26.8 0 0 1 -4-.2c-1.4-.1-1.8-1.2-1.8-2.5a2.1 2.1 0 0 1 1.8-2.1h1c7.1.6 14.2-1 21.3-1.1h80c7.1 0 14.2 1.5 21.4 1.1 1.5-.1 2.6.5 2.7 2.2s-1.1 2.6-2.9 2.6-2.4 0-3.5 0z"/>
    <path d="m380.5 34.7c-1.7 3.2-.3 7.5-2.3 11.2-.8 1.5-.4 3.6-.8 5.4-1.1 6.2-2.6 12.4-3.3 18.6s-3.4 14.5-3.8 22c-.1 3.4-1.6 6.4-2 9.8s-.8 5.2-1 7.9a2.6 2.6 0 0 1 -2.8 2.7c-2.1.2-2.6-.4-2-2.5 2.5-9.1 3.4-18.2 1.5-27.6-1.4-6.9-2.2-14.1-3.7-21s-1.5-14.1-4.1-20.9c-.8-1.9-.4-4.3-.6-6.4s.3-2.4 1.8-2.4 1.9.9 2.2 2.2c1.4 6.1 1.9 12.4 3.1 18.6s2.2 13.4 3.2 20.1a15.9 15.9 0 0 0 2.2 5c1.2-1.5 1.3-3.3 1.6-5.1 1-6.4 2.1-12.7 3.2-19.1s1.9-10.7 2.8-16.1c.2-1.1.6-2.2.8-3.4s.9-2.6 2.6-2.2 1.5 1.6 1.4 3.2z"
          fill="#305f7c"/>
    <path d="m206.6 60.1v-13.4c-.1-2.6.4-5.3-2.9-6.7-1.6-.7-1.2-7.8.4-8.6s2.5-2.8 2.5-4.9v-10.5a27.1 27.1 0 0 1 .1-2.9c.2-1.5 1.3-1.8 2.6-1.8s2 .8 2 2.2v8c0 2.2.1 4.3 0 6.5s.6 3.3 2.8 3.2 3.7 1.4 3.5 4a6.7 6.7 0 0 0 0 2c.1 2-.5 3.3-2.8 3.2s-3.5.9-3.5 3.5c.1 10.4.1 20.9.1 31.4a8.7 8.7 0 0 0 4.4 7.8c1.9 1.2 2.8 6.7 1.5 8.4a2.3 2.3 0 0 1 -2.3.7c-2.8-.6-5.4-1.6-6.3-4.9a63 63 0 0 1 -2.1-13.7c-.1-4.5 0-9 0-13.5z"
          fill="#305f7c"/>
    <path d="m337.7 60.9c.3-4.7 2.4-9 3.6-13.4s3.7-9.2 5.3-13.9a2.9 2.9 0 0 1 3.2-2.3c2.2 0 2.5.5 1.7 2.5-2.6 7-5.3 13.9-7.7 20.9a17.4 17.4 0 0 0 .2 11.7c2.5 7 5.2 13.9 7.9 20.8a15.5 15.5 0 0 1 .7 2.3c.2.8 1 1.5.2 2.3a2.8 2.8 0 0 1 -2.9.4 4.9 4.9 0 0 1 -2.9-3.2c-3-8-5.9-16.1-8.8-24.2a24.4 24.4 0 0 1 -.5-3.9z"
          fill="#305f7c"/>
    <path d="m331.7 51.6v-35c0-1.1 0-2.3.1-3.5s.7-1.7 1.9-1.7a1.8 1.8 0 0 1 1.9 1.8c0 1 .1 2 .1 3 0 23.7 0 47.3-.1 71a16.7 16.7 0 0 1 -.3 3.9c-.1 1-1.1 1.2-2 1.1a1.3 1.3 0 0 1 -1.4-1.1c-.1-1.4-.2-2.7-.2-4z"
          fill="#305f7c"/>
    <path d="m462.6 51.8v-36.4c0-1.5-.7-3.8 1.8-3.9s2.1 2.4 2.1 4c.1 24.1.1 48.3.1 72.4 0 1-.1 2-.2 3a1.6 1.6 0 0 1 -1.9 1.3 1.6 1.6 0 0 1 -1.7-1.4 26.8 26.8 0 0 1 -.2-4z"
          fill="#305f7c"/>
    <path d="m469.3 60.9c-1-6 2.3-11 4.1-16.3 1.1-3.5 2-7.3 4.1-10.5.4-.7.5-1.6 1.2-2.1a2.6 2.6 0 0 1 2.8-.4c1.2.5 1 1.5.7 2.5-1.6 4.3-3.2 8.6-4.7 13s-3.3 7.5-3.9 11.6 2 9.6 3.6 14.2 4.5 11.6 6.8 17.4c.5 1.3-.2 1.9-1.4 2s-3.2-.1-4.2-2.4c-2.9-7-5.2-14.2-8.2-21.2-1-2.3-.6-5.2-.9-7.8z"
          fill="#305f7c"/>
    <path d="m198.4 120.4c-7.3-.4-8.9 1-9.5 7.4a19 19 0 0 0 1.4 8.8c1.2 3 5.4 4.7 8.3 3.2s1.3-2.9 1.3-4.5.1-2.8-1.9-3h-1.4c-.5-.1-1.1 0-.9-.7s.4-.6.7-.6a6.2 6.2 0 0 1 1.9-.2c6.1-.3 6.7.3 6.3 6.3-.2 3.5-.5 3.9-4.1 4.3s-5.4 1.3-8.4.5-7.3-4.1-7.4-8.6-.8-7.2 1.8-10.5c3.9-4.9 10.2-5.8 14.8-5a1.6 1.6 0 0 1 1.4 1.7c-.1 1.1-.8 1.3-1.8 1.2z"/>
    <path d="m391.6 128v10.9c0 2-.8 2.9-2.7 2.5s-3.6.1-5.4.4c-4 .7-6-.9-7.3-4.8s-.2-5 .6-7.3a5.4 5.4 0 0 1 6-3.5c4.1.4 4.7-1.3 4.6-5.1a22.7 22.7 0 0 1 .3-4.5 2.2 2.2 0 0 1 2.6-1.8c1.4 0 1.3 1.2 1.3 2.2zm-4.2 5.6v-2.5c0-1.3 0-2.8-1.6-3.3a3.7 3.7 0 0 0 -4.4 1.4c-1.5 1.8-1.8 6.5-.4 8.4s2.4 2.4 4.2 1.9 2.3-1.8 2.2-3.5z"/>
    <path d="m439.6 128.3v-9a9.2 9.2 0 0 1 .3-2.9 2.5 2.5 0 0 1 2.9-1.5c1 .2 1 1.3 1 2v10a27.1 27.1 0 0 0 .4 4c.2.9 1 1.5 1.5.1s2.1-1.6 2.7-2.8 2.1-1.9 3.7-2a1.8 1.8 0 0 1 1.7.6l-1.2.8-1.2.8c-3.3 2.3-3.5 2.9-1.2 6.4 1.2 1.7 2.1 3.7 4.1 4.9.4.3 1.4.7.7 1.5a3 3 0 0 1 -1.7.8c-2-.2-4-.4-4.9-2.7l-.8-1.2c-.8-1.1-1.3-2.9-2.7-2.7s-1 2.2-1.1 3.4-.2 2.7-2.1 2.7-2.1-1.3-2.1-2.7z"/>
    <path d="m225.6 133.8v5.4c-.1 1.7-1.1 2.6-2.7 2.2s-4.9.1-7.3.5-4.9-.9-5.1-4 0-6.3 0-9.4c0-1.5.6-2.1 2.1-2.1s2 .7 2 2.1 0 5 .1 7.5 1.2 3.7 3.1 3.5 3.2-1.3 3.1-3.6.1-5 0-7.5 1-2 2.3-2 2.3.4 2.3 1.9.1 3.6.1 5.5z"/>
    <path d="m486.4 133.7v-2.5c.1-1.4-.6-3.2.6-4.3s2.7-.2 4.1 0 3.6-.6 5.4-.7c3.6-.3 4.8.7 5 4.4s.1 5.6.1 8.5-.8 2.4-2.5 2.4-2.2-1.1-2.2-2.7 0-5 0-7.5-.4-3.2-2.4-2.9-3.9.4-3.8 3-.1 4.7-.1 7 .2 3.2-2.1 3.1-2-1.9-2.1-3.3z"/>
    <path d="m404 126.1h2.9a2.6 2.6 0 0 1 2.6 2.9v7c0 1.1-.1 2.3.9 3.2s1.8.7 1.3 1.6-1.5.6-2.3.6c-3.1-.2-6.1-.5-9.2.4a3.2 3.2 0 0 1 -3.9-2.4 5.6 5.6 0 0 1 1.7-5.8 8 8 0 0 1 4.7-1.3c1 0 2.1-.2 2.1-1.5a2.5 2.5 0 0 0 -1.8-2.7 4.4 4.4 0 0 0 -3 .2c-.6.2-1.6 1.1-1.8-.4s.9-1.3 1.7-1.5zm1.4 10.8c-.2-1.3.3-3.2-2-3.2a2.6 2.6 0 0 0 -2.8 2.7c-.2 1.7.3 2.9 2.1 3.2s2.3-1.2 2.7-2.7z"/>
    <path d="m346.4 131c0-2.7-.1-5.4 0-8s-.7-2.8-2.6-2.8h-2c-1-.2-2.7.7-2.6-1.3s1.3-1.3 2.4-1.3h14c.8 0 1.7.2 1.6 1.3s-.8 1-1.5 1.1-3.5-.6-4.7.9-.4 3.6-.5 5.4v12.5c0 1.5-.5 2.6-2.3 2.5s-1.7-1.2-1.8-2.4v-8z"/>
    <path d="m268.6 134c0-1.9.1-3.7 0-5.5s.6-2.5 2-2.1 5.2 0 7.8-.2c4.1-.3 5.1.6 5.2 4.6s0 5.6 0 8.4-.4 2.3-2 2.3a1.9 1.9 0 0 1 -2.1-2.1c-.1-2-.1-4-.1-6 0-3.7-.9-5.2-3.1-5.1s-3.4 1.7-3.5 5.4c0 1.4.1 2.7 0 4s.7 3.6-2 3.7-2.1-1.9-2.2-3.5z"/>
    <path d="m304.3 128.1v10.5c.1 1.7-.4 2.9-2.4 2.9s-2.3-1.2-2.3-2.7c0-6.8 0-13.6.1-20.4a3.1 3.1 0 0 1 .8-2.3 2.6 2.6 0 0 1 2.5-1.3c1.4.2 1.3 1.4 1.3 2.3z"/>
    <path d="m256.3 126.1c4 0 5.5.9 6.7 3.9s.1 2.9-1.7 3.3a49.5 49.5 0 0 1 -5.4.6c-1.3.1-2.3.5-2.3 2a2.6 2.6 0 0 0 1.5 2.8 6.5 6.5 0 0 0 6.2.1c.6-.2 1.4-.4 1.7.2s-.7 1.1-1.2 1.4a12.3 12.3 0 0 1 -6.7 1.6c-3.3 0-5-1.5-6-4.8-1.8-6 1.4-11 7.2-11.1zm2.3 4.1c-.4-1.1-1-2.5-2.9-2.4s-2.1 1.2-2.1 2.7 1.3 2 2.6 1.9 2.4-.1 2.4-2.2z"/>
    <path d="m364.8 142.1c-4.1.1-6.5-1.7-7.4-5.1a11.2 11.2 0 0 1 1.1-8.2c1.6-3 4.4-2.5 6.9-2.7s4.5.7 5.7 3.2.6 3.5-1.8 4-3.3.4-4.9.7-2.4.2-2.6 1.7.7 2.3 2 3.1 3.7.8 5.7.1 1.4-.5 1.6.2-.6 1.3-1.2 1.5zm-.6-9.7c1.2-.2 2.9.4 3-1.5a2.9 2.9 0 0 0 -2.5-3.1c-1.4-.4-3 1.4-3 3s1.4 1.5 2.5 1.6z"/>
    <path d="m463.4 133.9c-.1 5.1-.1 5.1 5.9 6 .3.1.7.2.8.4s-.2.8-.6.9a2.9 2.9 0 0 0 -1 .3c-2.2.7-2.5 1.5-.7 3.4s1.3 4.7-1.8 5.2c-.8.2-2.1.2-2.4-.2s.8-1.1 1.4-1.5 1.9-1.6.4-2.6-2.1-4-4.6-5.4-3.7-5-2.4-8.5 3.3-5.6 7.6-5.8h.5c1.5.5 4.4-1.1 4.2 1.5s-2.4.1-3.7.2-3.6.7-3.6 3.1z"/>
    <path d="m231.3 126.1c2.3.1 3.7.6 4.4 2.9a58 58 0 0 0 2.7 6.9c.6 1.5 1.2 1.1 2 .1s1.3-4 1.5-6.1a20.1 20.1 0 0 1 .1-2.5 1.8 1.8 0 0 1 2-1.1 1.4 1.4 0 0 1 1.3 1.4 21.8 21.8 0 0 1 -5.5 13c-1.4 1.7-3.4.9-4.6-1.2-2.1-3.7-2.8-8.1-5.4-11.7-1.3-1.8 1-1.3 1.5-1.7z"/>
    <path d="m523.1 126.3c1.2.2 3.6-.7 4.3.5s-.8 3.4-1.8 4.7-2.3 4.4-3.8 6.4-.4 1.7.7 2.1 3.3.2 4.9-.1 1.5-1.5 1.8.1-.9 1.1-1.6 1.4a11.4 11.4 0 0 1 -5.8.8c-1.2-.1-2.3-.5-3.4-.6s-2.7-.8-1.6-2.8 3.2-5.3 4.7-8 1.3-2.5-1.6-2.9h-1.4c-.5 0-1.1-.3-.9-.9s.7-.5 1.2-.5z"/>
    <path d="m319.9 133.7v-1.5c.2-1.8-.7-3.9.6-5.2s3.1-.4 4.7 0 .6-.3.9-.3 3.2-1.6 3.5.9-1.9 1.3-2.9 1.6-1.9 1.8-2 3.1-.1 4.3-.1 6.4-.6 2.9-2.6 2.7-2.1-1.3-2.1-2.7 0-3.3 0-5z"/>
    <path d="m415.7 133.5v-3.5c.1-4 .4-4.5 4.3-2.9 1.8.7 2.2-1.2 3.5-.9s1.7.1 1.8 1.2-.4 1.4-1.3 1.7c-3.7 1.1-3.6 1.2-3.7 4.9-.1 1.9 0 3.7-.1 5.5s-.9 2-2.3 2-2.2-.5-2.1-2v-6z"/>
    <path d="m433.5 133.7v5.5c0 1.3-.3 2.2-1.9 2.3s-2.6-.5-2.6-2.2v-11c0-1.4.9-2 2.3-2s2.2.4 2.2 2 0 3.6 0 5.4z"/>
    <path d="m480.6 133.8v5.4c-.1 1.7-1 2.4-2.6 2.2a2 2 0 0 1 -2.1-2.2c.1-3.7.1-7.3.1-10.9 0-1.6 1-1.9 2.3-1.9a1.9 1.9 0 0 1 2.3 1.9z"/>
    <path d="m493.3 84.8v5c0 1.2-.1 2.4-1.7 2.4a2.3 2.3 0 0 1 -2.7-1.6 39.8 39.8 0 0 1 -.1-10.9c.2-1.4 1.7-1.3 2.9-1.2s1.6.8 1.6 1.9z"
          fill="#305f7c"/>
    <path d="m293.8 134v5.4c0 1.4-.7 2.1-2.2 2.1s-2-.9-2-2.2c0-3.7.1-7.3 0-10.9 0-1.5.7-2.1 2.2-2s2 .8 2 2.1z"/>
    <path d="m313.8 133.8v5.5c0 1.3-.5 2.2-2.1 2.1a1.8 1.8 0 0 1 -1.9-1.8v-11.4c0-1.5 1-1.9 2.4-1.8s1.6.9 1.6 2z"/>
    <path d="m511.6 133.8v6c-.1 1.2-.8 1.7-2 1.6s-2-.3-2.1-1.5v-11.9c0-1.2.8-1.6 2-1.6s2.1.5 2.1 2z"/>
    <path d="m433.4 119.7c-.5 1-1.4 1.9-2.2 1.8a1.9 1.9 0 0 1 -1.8-2.4c.3-.9 1-1.9 2.2-1.5a2.6 2.6 0 0 1 1.8 2.1z"/>
    <path d="m509.7 121.5a2 2 0 0 1 -1.9-1.8 1.9 1.9 0 0 1 1.5-2.1 1.6 1.6 0 0 1 2.1 1.5c.3 1.4-.6 2-1.7 2.4z"/>
    <path d="m293.6 119.6c-.6.8-.8 2.1-2 1.9a1.9 1.9 0 0 1 -1.8-2.4 1.6 1.6 0 0 1 2.1-1.5c1.1.1 1.3 1.2 1.7 2z"/>
    <path d="m480.9 119.6c-.9.9-1.6 2-2.9 1.5s-2.1-.5-1.7-1.7 1.2-2.1 2.6-1.8 1.3 1.3 2 2z"/>
    <path d="m312.5 117.5c.8 0 1.2.9 1.3 1.9a1.9 1.9 0 0 1 -3.7.1c.1-.9.5-2 2.4-2z"/>
    <path d="m222.4 121.3c-1.4 0-1.7-.6-1.7-1.3a1.3 1.3 0 0 1 1.6-1.3 1.1 1.1 0 0 1 1.1 1.3 1.2 1.2 0 0 1 -1 1.3z"/>
    <path d="m215.6 120.1c-.2.7-.6 1.2-1.3 1.1a1.2 1.2 0 0 1 -1.1-1.4 1.1 1.1 0 0 1 1-.9 1.5 1.5 0 0 1 1.4 1.2z"/>
    <path d="m65.1 19.5c6.8 0 13.6-.1 20.5 0 5.3 0 6.1.8 6.2 6 0 13.5 0 26.9-.1 40.4 0 4.9-.9 5.9-5.8 5.9s-10.3.1-15.5 0-4.3-.4-4.3-4.2c-.1-6.2 0-12.4 0-18.5-.1-4.1-.1-4.2-4.2-4.2-6.3-.1-12.7 0-19 0-4.3-.1-4.8-.6-4.9-5v-13.9c.1-5.1 1.5-6.5 6.6-6.5 6.9-.1 13.7 0 20.5 0z"/>
    <path d="m46.3 51.2h10.5c1.6-.1 2.4.7 2.4 2.3 0 7 .1 14 0 21 0 1.8-.9 2.7-2.8 2.7-6.3 0-12.6.1-19-.1-3-.1-4.2-1.3-4.3-4.4-.1-6.3 0-12.6 0-19-.1-1.9.8-2.6 2.7-2.5z"/>
</svg>