<svg xmlns="http://www.w3.org/2000/svg" viewBox="0 0 429.13821 429.13821"><rect width="429.13821" height="429.13821"/><path d="M84.52542,112.925l3.07715,55.72364q0,17.436-5.12891,27.6914-5.127,10.25683-17.43457,15.38477,12.9873,4.44581,17.77734,13.50293,4.78272,9.063,4.78614,27.8623l-3.76075,60.169q0,13.333,3.24707,19.48633,3.2461,6.15381,11.79493,6.15429a63.67728,63.67728,0,0,0,15.38378-1.71l3.41895,25.98242a129.2394,129.2394,0,0,1-27.00781,3.07618q-20.85645,0-32.30664-11.62305Q46.9141,342.99872,46.92,322.83124l3.76074-65.29687q0-14.35841-3.93164-22.90527-3.93457-8.54-17.60645-10.25586V199.07538q14.01417-1.70653,17.94825-9.91406,3.92577-8.20458,3.93164-25.29883L48.28714,106.0871q0-20.84838,10.94043-32.47754Q70.16409,61.9919,91.36233,61.986A112.58,112.58,0,0,1,118.71194,65.405L115.293,90.70331a89.74582,89.74582,0,0,0-13.67383-1.70947q-10.60109,0-13.84571,5.29883Q84.52005,99.59687,84.52542,112.925Z" style="fill:#fff"/><path d="M148.02151,298.36738V118.09882q0-7.22021-7.85156-7.5376l-10.99219-.62793V83.8664h55.27442V158.298q14.13281-13.19091,38.001-13.19043,29.51661,0,46.79395,19.94238,17.269,19.94824,17.27343,56.05957,0,90.76466-76.002,90.7627a162.11969,162.11969,0,0,1-34.38965-3.92578Q158.06595,304.02362,148.02151,298.36738Zm36.43067-101.75391v81.34082q11.93115,6.28564,27.63671,6.28027,35.80226,0,35.80274-58.10058,0-53.06982-35.17481-53.0752a31.30214,31.30214,0,0,0-19.78515,6.59473A20.5488,20.5488,0,0,0,184.45218,196.61347Z" style="fill:#fff"/><path d="M345.29007,313.259,341.52932,253.09q0-18.79687,4.78614-27.8623,4.78418-9.0542,17.77734-13.50293-12.30762-5.12842-17.43555-15.38477-5.127-10.25537-5.12793-27.6914l3.07715-55.72364q0-13.33374-3.248-18.63232-3.25342-5.29614-13.84571-5.29883a89.68451,89.68451,0,0,0-13.6748,1.70947l-3.418-25.29834A112.50675,112.50675,0,0,1,337.76858,61.986q21.19337,0,32.13574,11.62353,10.938,11.62647,10.94043,32.47754l-2.73535,57.77539q0,17.09913,3.93164,25.29883,3.92578,8.20459,17.94824,9.91406v25.29786q-13.67724,1.71532-17.60644,10.25586-3.93457,8.55028-3.93164,22.90527l3.76074,65.29687q0,20.168-11.45312,31.79395-11.458,11.61768-32.30567,11.62305a129.20344,129.20344,0,0,1-27.00781-3.07618l3.418-25.98242a63.62279,63.62279,0,0,0,15.38476,1.71q8.54151,0,11.79395-6.15429Q345.28811,326.5915,345.29007,313.259Z" style="fill:#fff"/></svg>