<svg xmlns:xlink="http://www.w3.org/1999/xlink" viewBox="0 0 395.6 117.8" xmlns="http://www.w3.org/2000/svg">
    <clipPath id="a" transform="translate(0 -5.8)">
        <path d="m0 5.8h149.9v117.79h-149.9z"/>
    </clipPath>
    <g clip-path="url(#a)" fill-rule="evenodd">
        <path d="m95.4 34h29.1a45.8 45.8 0 0 1 8.1 16.8c6.9 26.7-8.2 58.2-35.7 68.9a48.7 48.7 0 0 1 -18.3 3.9c-21.4 0-42.9.1-64.4-.1h-13.5c-.8-.1-.8.1-.6-.6s1.2-6.7 3.9-10.8c3.7-5.6 9-8.2 15.3-9.5l5.8-.8 6-.3h37.5a123.9 123.9 0 0 0 12.6-.5 36.1 36.1 0 0 0 30.9-36.5c0-.6-.1-.9-.2-.9h-35.7l-.2 14h19.1c.4 0 .2.1-.1.4-9.9 14.3-29.8 14.6-39.5.2-8.3-12.5-2.5-29 9.8-34.8 9.3-4.4 19.4-1.4 26.7 5.4a31.5 31.5 0 0 1 2.6 2.8l10.2-9.4z"
              fill="#003a72" transform="translate(0 -5.8)"/>
        <path d="m149.9 5.8-46 .2-33.1.2a46.4 46.4 0 0 0 -23.8 6.6 62.3 62.3 0 0 0 -21.5 21.2c-11.2 17.7-10.7 45.1.9 62.6h29.4c-24.1-12.3-22.5-56.8 5.6-66.5a29.6 29.6 0 0 1 6.2-1.3l2.3-.3 4.4-.3c13.3-.8 26.1-.3 39.5-.4 7.5-.1 17.2.1 24-3.7s11.9-10.3 12.1-18.3"
              fill="#1391d1" transform="translate(0 -5.8)"/>
    </g>
    <g fill="#1d71b8" transform="translate(0 -5.8)">
        <path d="m176.5 37.9a14.1 14.1 0 0 1 -5.8-1.3 16 16 0 0 1 -4.7-3.5 16.6 16.6 0 0 1 -3.1-5.1 15.7 15.7 0 0 1 -1.1-6.1 14.6 14.6 0 0 1 1.1-6 16.6 16.6 0 0 1 3.1-5.1 15.7 15.7 0 0 1 4.7-3.4 14.6 14.6 0 0 1 6-1.2 14.9 14.9 0 0 1 7.5 1.8 13 13 0 0 1 4.6 5l-3.8 2.7a8.1 8.1 0 0 0 -3.5-3.8 9.6 9.6 0 0 0 -5-1.3 9 9 0 0 0 -4 .9 11 11 0 0 0 -3.1 2.6 9.6 9.6 0 0 0 -1.9 3.6 12.5 12.5 0 0 0 -.7 4.3 13.3 13.3 0 0 0 .7 4.5 10.3 10.3 0 0 0 2.2 3.6 8.5 8.5 0 0 0 3.2 2.4 8.7 8.7 0 0 0 4 .9 9.1 9.1 0 0 0 4.8-1.3 13.2 13.2 0 0 0 4.4-3.9v5a12.4 12.4 0 0 1 -9.6 4.7zm9.1-12.4h-6.6v-3.7h10.7v15.9h-4.1z"/>
        <path d="m208.4 37.9a14.7 14.7 0 0 1 -6.3-1.3 10.8 10.8 0 0 1 -4.1-3.5 12.7 12.7 0 0 1 -2.3-5 22.7 22.7 0 0 1 -.8-5.9v-15.8h5v15.8a18.7 18.7 0 0 0 .4 4.2 14.2 14.2 0 0 0 1.4 3.6 7.8 7.8 0 0 0 2.6 2.5 8.6 8.6 0 0 0 4.1.9 8.3 8.3 0 0 0 4.1-.9 7.2 7.2 0 0 0 2.6-2.6 9.7 9.7 0 0 0 1.4-3.6 18.4 18.4 0 0 0 .5-4.1v-15.8h4.9v15.8a23.7 23.7 0 0 1 -.7 6.1 16.5 16.5 0 0 1 -2.4 5 11.4 11.4 0 0 1 -4.2 3.3 13.2 13.2 0 0 1 -6.2 1.3z"/>
        <path d="m233.4 15.5v22.2h-4.9v-31.3h4l17.8 22.6v-22.6h4.9v31.3h-4.3z"/>
        <path d="m280.8 13.7-1.3-1a9.3 9.3 0 0 0 -2-1 10.4 10.4 0 0 0 -2.5-.8 11.2 11.2 0 0 0 -2.7-.3 7.5 7.5 0 0 0 -4.6 1.1 3.8 3.8 0 0 0 -1.5 3.2 3 3 0 0 0 .9 2.3 5 5 0 0 0 2.5 1.4l4.3 1.3a27.3 27.3 0 0 1 5.5 1.8 7.8 7.8 0 0 1 3.6 2.7 7.5 7.5 0 0 1 1.2 4.5 8.6 8.6 0 0 1 -.8 4.1 7.5 7.5 0 0 1 -2.5 2.8 13.8 13.8 0 0 1 -3.7 1.6 19.7 19.7 0 0 1 -4.4.5 23.1 23.1 0 0 1 -4.6-.5 21.5 21.5 0 0 1 -4.5-1.4 22 22 0 0 1 -3.8-2.4l2.2-4.2 1.7 1.3a19.1 19.1 0 0 0 2.5 1.3l3.1 1a13.9 13.9 0 0 0 3.5.4 7.9 7.9 0 0 0 4.5-1 3.6 3.6 0 0 0 .6-5.5 10.4 10.4 0 0 0 -3-1.6c-1.3-.4-2.8-.9-4.6-1.3a43.8 43.8 0 0 1 -5.2-1.8 7.3 7.3 0 0 1 -3.1-2.6 6.7 6.7 0 0 1 -1-3.9 9.2 9.2 0 0 1 1.5-5.3 9.5 9.5 0 0 1 4.1-3.2 14.8 14.8 0 0 1 5.7-1 17.8 17.8 0 0 1 4.1.4 20.9 20.9 0 0 1 3.5 1.3 14.9 14.9 0 0 1 3 1.8z"/>
        <path d="m310.6 33.3v4.4h-21.4v-31.3h21v4.3h-16.1v8.9h14v4.1h-14v9.6z"/>
        <path d="m320.7 15.5v22.2h-5v-31.3h4.1l17.7 22.6v-22.6h5v31.3h-4.3z"/>
        <path d="m187.6 72.3a7.3 7.3 0 0 1 -1.2 4.1 7.5 7.5 0 0 1 -3.2 2.9 9.1 9.1 0 0 1 -4.3 1h-14.8v-31.2h15.1a6.4 6.4 0 0 1 6.2 4.1 8.8 8.8 0 0 1 .9 3.8 8.6 8.6 0 0 1 -1.2 4.4 7.2 7.2 0 0 1 -3.3 2.9 7.7 7.7 0 0 1 4.3 3 8.4 8.4 0 0 1 1.5 5zm-20.4-20.5v11.5h10.7a5.1 5.1 0 0 0 2.8-.8 6.7 6.7 0 0 0 1.9-2.2 6.4 6.4 0 0 0 .7-2.8 7.3 7.3 0 0 0 -.7-2.9 6 6 0 0 0 -1.8-2.1 4.6 4.6 0 0 0 -2.6-.7zm17.3 20a6 6 0 0 0 -.7-3 5.7 5.7 0 0 0 -1.9-2.2 5 5 0 0 0 -2.7-.8h-12v11.9h11.7a4.7 4.7 0 0 0 2.8-.9 5.8 5.8 0 0 0 2.8-5z"/>
        <path d="m206.2 80.6a13.3 13.3 0 0 1 -6.3-1.4 9.7 9.7 0 0 1 -4-3.5 14.6 14.6 0 0 1 -2.2-5.1 22 22 0 0 1 -.7-5.8v-15.7h3v15.7a25.2 25.2 0 0 0 .5 4.8 15.4 15.4 0 0 0 1.7 4.2 8.6 8.6 0 0 0 3.1 2.9 10 10 0 0 0 4.8 1.1 10.6 10.6 0 0 0 5-1.1 9.9 9.9 0 0 0 3.1-3 16 16 0 0 0 1.6-4.2 24.2 24.2 0 0 0 .5-4.7v-15.7h3v15.7a23.5 23.5 0 0 1 -.7 6 13.4 13.4 0 0 1 -2.2 5 11.6 11.6 0 0 1 -4.1 3.5 14.1 14.1 0 0 1 -6.1 1.3z"/>
        <path d="m226.7 80.3v-31.2h3.1v31.2z"/>
        <path d="m237.6 80.3v-31.2h3.1v28.5h18v2.7z"/>
        <path d="m263.3 80.3v-31.2h10.6a15.3 15.3 0 0 1 8.3 2.1 12.9 12.9 0 0 1 5 5.6 18.6 18.6 0 0 1 1.7 7.9 16.6 16.6 0 0 1 -1.9 8.2 12.6 12.6 0 0 1 -5.2 5.5 15.2 15.2 0 0 1 -7.9 1.9zm22.5-15.6a15.7 15.7 0 0 0 -1.4-6.7 10.9 10.9 0 0 0 -4-4.5 12.1 12.1 0 0 0 -6.5-1.7h-7.5v25.8h7.5a11.8 11.8 0 0 0 6.5-1.7 10.8 10.8 0 0 0 4-4.7 15.1 15.1 0 0 0 1.4-6.5z"/>
        <path d="m294.8 80.3v-31.2h3.1v31.2z"/>
        <path d="m308.8 54.8v25.5h-3.1v-31.2h2.5l20.6 26v-26h3.1v31.2h-2.9z"/>
        <path d="m352.2 80.6a13 13 0 0 1 -5.8-1.4 14.7 14.7 0 0 1 -4.6-3.6 14.9 14.9 0 0 1 -3.1-5.1 16.6 16.6 0 0 1 -1.1-5.8 17.4 17.4 0 0 1 1.1-6.1 17.1 17.1 0 0 1 3-5 14.4 14.4 0 0 1 4.6-3.5 15.6 15.6 0 0 1 13.3.6 13.2 13.2 0 0 1 4.4 5l-2.4 1.6a9.3 9.3 0 0 0 -4-4.3 11.6 11.6 0 0 0 -5.6-1.4 10.5 10.5 0 0 0 -4.7 1.1 11.6 11.6 0 0 0 -3.6 3 12 12 0 0 0 -2.2 4.2 15.1 15.1 0 0 0 -.8 4.8 13.9 13.9 0 0 0 .9 5 12.7 12.7 0 0 0 2.5 4.2 10.4 10.4 0 0 0 3.8 2.8 10.1 10.1 0 0 0 4.6 1.1 11.4 11.4 0 0 0 5.4-1.4 18.4 18.4 0 0 0 4.9-4.5v3.3c-3 3.6-6.5 5.4-10.6 5.4zm10.1-13.3h-7v-2.3h9.6v15.3h-2.6z"/>
        <path d="m164.4 123v-31.2h12.8a7.3 7.3 0 0 1 3.6.8 7.4 7.4 0 0 1 2.8 2.2 10.8 10.8 0 0 1 1.9 3.1 9.8 9.8 0 0 1 .7 3.4 10.8 10.8 0 0 1 -1.1 4.7 11.9 11.9 0 0 1 -3.1 3.6 7.7 7.7 0 0 1 -4.5 1.4h-11.5v12zm1.6-13.5h11.5a6.2 6.2 0 0 0 3.8-1.2 8.1 8.1 0 0 0 2.5-3 11 11 0 0 0 .8-4 7.9 7.9 0 0 0 -1-4 9.7 9.7 0 0 0 -2.7-3 6.2 6.2 0 0 0 -3.7-1.1h-11.2z"/>
        <path d="m191.7 123v-31.2h12.9a7.3 7.3 0 0 1 3.6.8 7.4 7.4 0 0 1 2.8 2.2 10.8 10.8 0 0 1 1.9 3.1 9.7 9.7 0 0 1 .6 3.4 9.5 9.5 0 0 1 -3.6 7.9 8.3 8.3 0 0 1 -4 1.6l7.8 12.2h-1.8l-7.7-12h-10.9v12zm1.6-13.5h11.5a6.4 6.4 0 0 0 3.9-1.1 8.1 8.1 0 0 0 2.4-3.1 9.3 9.3 0 0 0 .9-4 8.2 8.2 0 0 0 -1-4 9.7 9.7 0 0 0 -2.7-3 6.3 6.3 0 0 0 -3.8-1.1h-11.2z"/>
        <path d="m232.5 123.2a13.1 13.1 0 0 1 -5.9-1.3 14.7 14.7 0 0 1 -4.6-3.6 16.3 16.3 0 0 1 -3-5.1 16.6 16.6 0 0 1 -1.1-5.8 17.3 17.3 0 0 1 1.1-6 16.9 16.9 0 0 1 3.1-5 16.4 16.4 0 0 1 4.7-3.6 14 14 0 0 1 5.7-1.3 13.3 13.3 0 0 1 6 1.4 13.7 13.7 0 0 1 4.6 3.7 16.3 16.3 0 0 1 3 5.1 15.9 15.9 0 0 1 1 5.7 15.2 15.2 0 0 1 -1.1 6 14.9 14.9 0 0 1 -3.1 5.1 16 16 0 0 1 -4.6 3.5 14 14 0 0 1 -5.8 1.2zm-13-15.8a16.1 16.1 0 0 0 .9 5.4 19.2 19.2 0 0 0 2.7 4.6 14.6 14.6 0 0 0 4.2 3.2 11.4 11.4 0 0 0 5.2 1.2 11.9 11.9 0 0 0 5.4-1.2 14.9 14.9 0 0 0 4.1-3.3 16.9 16.9 0 0 0 2.7-4.7 15.4 15.4 0 0 0 .9-5.2 14 14 0 0 0 -1-5.4 13.3 13.3 0 0 0 -2.7-4.6 13 13 0 0 0 -4.2-3.2 11.4 11.4 0 0 0 -5.2-1.2 11.8 11.8 0 0 0 -5.3 1.2 12 12 0 0 0 -4.1 3.3 14.3 14.3 0 0 0 -2.7 4.6 16.4 16.4 0 0 0 -.9 5.3z"/>
        <path d="m253.4 123v-31.2h10.2a15.8 15.8 0 0 1 8.2 2 13 13 0 0 1 4.9 5.7 18.1 18.1 0 0 1 1.6 7.8 17.8 17.8 0 0 1 -1.8 8.3 12.9 12.9 0 0 1 -5.1 5.5 15 15 0 0 1 -7.8 1.9zm23.4-15.7a17.3 17.3 0 0 0 -1.5-7.3 12.8 12.8 0 0 0 -4.5-5 13.7 13.7 0 0 0 -7.2-1.8h-8.7v28.4h8.7a13 13 0 0 0 7.3-1.9 11.6 11.6 0 0 0 4.4-5.1 17.3 17.3 0 0 0 1.5-7.3z"/>
        <path d="m297.2 123.2a12.9 12.9 0 0 1 -6.2-1.3 10.7 10.7 0 0 1 -4-3.6 14.5 14.5 0 0 1 -2.1-5.1 27.9 27.9 0 0 1 -.7-5.8v-15.6h1.6v15.6a30.7 30.7 0 0 0 .5 5.3 14.1 14.1 0 0 0 1.9 4.7 9.5 9.5 0 0 0 3.4 3.2 11.9 11.9 0 0 0 5.6 1.2 11.5 11.5 0 0 0 5.5-1.2 10.1 10.1 0 0 0 3.5-3.3 12.8 12.8 0 0 0 1.8-4.7 22.4 22.4 0 0 0 .6-5.2v-15.6h1.5v15.6a29 29 0 0 1 -.7 6 13.4 13.4 0 0 1 -2.2 5 10.1 10.1 0 0 1 -3.9 3.5 12.8 12.8 0 0 1 -6.1 1.3z"/>
        <path d="m315.8 107.1a17.2 17.2 0 0 1 1-5.5 16.1 16.1 0 0 1 2.9-5.1 14.7 14.7 0 0 1 4.6-3.6 14.6 14.6 0 0 1 6.3-1.4 12.4 12.4 0 0 1 7.1 2 11.5 11.5 0 0 1 4.4 4.9l-1.3.6a10.3 10.3 0 0 0 -2.9-3.5 9 9 0 0 0 -3.6-1.9 13.2 13.2 0 0 0 -3.9-.6 12.3 12.3 0 0 0 -5.5 1.2 11.1 11.1 0 0 0 -4.1 3.3 14 14 0 0 0 -2.6 4.6 18.2 18.2 0 0 0 -.8 5.2 14.9 14.9 0 0 0 1 5.5 16.7 16.7 0 0 0 2.8 4.6 14.6 14.6 0 0 0 4.2 3.2 11.4 11.4 0 0 0 5.2 1.2 11.6 11.6 0 0 0 4-.7 12 12 0 0 0 3.9-2 10.6 10.6 0 0 0 2.9-3.7l1.4.6a10.7 10.7 0 0 1 -3.1 3.9 15.3 15.3 0 0 1 -4.5 2.5 13.4 13.4 0 0 1 -4.8.8 13.1 13.1 0 0 1 -5.9-1.3 18.3 18.3 0 0 1 -4.6-3.7 18.1 18.1 0 0 1 -3-5.2 17.6 17.6 0 0 1 -1.1-5.9z"/>
        <path d="m369.9 93.2h-11.8v29.8h-1.5v-29.8h-11.7v-1.4h25z"/>
        <path d="m393 96.4a12.9 12.9 0 0 0 -1.8-1.6l-2-1.1-2.2-.6-2.6-.2c-3.3 0-5.7.7-7.2 1.9a6.5 6.5 0 0 0 -2.3 5.1 5.1 5.1 0 0 0 1 3.4 6.7 6.7 0 0 0 3.1 2l5.4 1.4a51 51 0 0 1 6 1.6 10.1 10.1 0 0 1 3.9 2.5 6.6 6.6 0 0 1 1.3 4.4 6.5 6.5 0 0 1 -3 6 8.6 8.6 0 0 1 -3.5 1.5 15.9 15.9 0 0 1 -4.5.5 17.4 17.4 0 0 1 -4.7-.5 15.6 15.6 0 0 1 -4.1-1.5 17.3 17.3 0 0 1 -3.5-2.7l.9-1.2a10.7 10.7 0 0 0 2.3 2 18.2 18.2 0 0 0 2.7 1.5 16.7 16.7 0 0 0 3 .8 18.7 18.7 0 0 0 3.4.3c2.9 0 5.3-.5 6.9-1.6a5.6 5.6 0 0 0 2.6-4.9 5.7 5.7 0 0 0 -1.1-3.6 8.7 8.7 0 0 0 -3.4-2.2 37.1 37.1 0 0 0 -5.7-1.6 29 29 0 0 1 -5.7-1.5 7.3 7.3 0 0 1 -3.6-2.3 6.5 6.5 0 0 1 -1.2-4.1 8.1 8.1 0 0 1 1.3-4.7 9.8 9.8 0 0 1 3.9-2.9 16.1 16.1 0 0 1 5.7-1 20 20 0 0 1 3.7.4 15.2 15.2 0 0 1 3.2 1.2 16.5 16.5 0 0 1 2.7 2.1z"/>
    </g>
    <path d="m155 0h1.6v117.79h-1.6z" fill="#2194d2"/>
</svg>