<svg viewBox="0 0 180.9 40.6" xmlns="http://www.w3.org/2000/svg">
    <g fill-rule="evenodd">
        <path d="m75.1 18.8a2.4 2.4 0 0 1 -1.2.3 1.6 1.6 0 0 1 -1.6-1.6 1.6 1.6 0 1 1 3.2 0v5h3.4v-5.1a5.1 5.1 0 0 0 -5.1-5.1 5.1 5.1 0 1 0 0 10.2l1.3-.2zm4.5 3.7v-4.6s-.6-5.2 4.4-5.5v3.4s-1.1-.1-1.1 1.3v5.4zm11.3-3.7a2.4 2.4 0 0 1 -1.2.3 1.7 1.7 0 0 1 -1.6-1.6 1.6 1.6 0 0 1 1.6-1.6 1.6 1.6 0 0 1 1.6 1.6v5h3.4v-5.1a5.1 5.1 0 1 0 -5.1 5.1l1.3-.2zm10.6-.5a1.5 1.5 0 0 1 -2.8-.9 1.5 1.5 0 0 1 1.5-1.5 1.5 1.5 0 0 1 1.3.6l1.3-3.4a4.6 4.6 0 0 0 -2.6-.7 5 5 0 0 0 -5 5 5.1 5.1 0 0 0 5 5.1 5.2 5.2 0 0 0 3.2-1.1zm7.8.5a2 2 0 0 1 -1.1.3 1.6 1.6 0 0 1 -1.6-1.6 1.6 1.6 0 0 1 1.6-1.6 1.6 1.6 0 0 1 1.6 1.6v5h3.3v-5.1a5.1 5.1 0 1 0 -5.1 5.1l1.3-.2zm16.7 3.7h3.5v-5.8a1.1 1.1 0 0 1 1.2-1.1 1 1 0 0 1 1 1.1v5.8h3.3v-5.8a4.4 4.4 0 0 0 -4.4-4.4 4.8 4.8 0 0 0 -2.9 1 4.8 4.8 0 0 0 -2.9-1 4.4 4.4 0 0 0 -4.4 4.4v5.8h3.3v-5.8a1 1 0 0 1 1-1.1 1.1 1.1 0 0 1 1.1 1.1zm16-3.7a2.4 2.4 0 0 1 -1.2.3 1.7 1.7 0 0 1 -1.6-1.6 1.6 1.6 0 0 1 1.6-1.6 1.6 1.6 0 0 1 1.6 1.6v5h3.4v-5.1a5.1 5.1 0 1 0 -5.1 5.1l1.3-.2zm4.9-9.6h3.1v5.5s2.4.3 2.5-2h3.1a4 4 0 0 1 -1.7 3.3 5.6 5.6 0 0 1 1.9 4.2v2.3h-3.5v-2.4s-.1-1.4-1.1-1.4a1.4 1.4 0 0 0 -1.2 1.3v2.5h-3.1zm30.2 9.6a2.4 2.4 0 0 1 -1.2.3 1.6 1.6 0 0 1 -1.6-1.6 1.6 1.6 0 1 1 3.2 0v5h3.4v-5.1a5.1 5.1 0 0 0 -5.1-5.1 5.1 5.1 0 0 0 0 10.2l1.3-.2zm-11.5-3.2a1 1 0 0 1 1.1 1.1v5.8h3.3v-5.8a4.3 4.3 0 0 0 -4.4-4.4 4.4 4.4 0 0 0 -4.4 4.4v5.8h3.3v-5.8a1.1 1.1 0 0 1 1.1-1.1zm-8.8-3.3h3.3v10.2h-3.3zm-.1-2a1.8 1.8 0 0 1 1.8-1.8 1.8 1.8 0 0 1 1.7 1.8 1.8 1.8 0 0 1 -1.7 1.7 1.8 1.8 0 0 1 -1.8-1.7zm-97.4-1.1h3.1v5.5s2.4.3 2.5-2h3.1a4 4 0 0 1 -1.7 3.3 5.6 5.6 0 0 1 1.9 4.2v2.3h-3.5v-2.4s-.1-1.4-1-1.4a1.4 1.4 0 0 0 -1.3 1.3v2.5h-3.1z"
              fill="#2196d4"/>
        <path d="m45.9 30.1h-8.4v-4h3.2v-2.2h-5.1v6.2h-3.3v-6.1h-5.2v2.2h3.4v3.9h-4.4s-2.2 0-2.2-1.1-.2 1.1-2.7 1.1h-2.5a16.8 16.8 0 0 0 13.7 7 16.3 16.3 0 0 0 13.5-7m-10.4-9.5h6.6a2.9 2.9 0 0 1 3 3v2.4h2.3s.8-.1.9-.5a17.2 17.2 0 0 0 .8-5.2 16.8 16.8 0 0 0 -33.5 0 18.6 18.6 0 0 0 .6 4.8 4.2 4.2 0 0 0 .5 1h3.2v-5.5h3.9v1a2.4 2.4 0 0 1 .9-.8 4.4 4.4 0 0 1 1.5-.2h6.3a1.4 1.4 0 0 1 1.5 1.2 1.3 1.3 0 0 1 1.5-1.2zm16.3 5.3h129.1v4.2h-130.8a20.1 20.1 0 0 1 -17.7 10.5 20.3 20.3 0 0 1 -17.8-10.5h-14.6v-4.1h12.9a17.9 17.9 0 0 1 -.8-5.7 20.3 20.3 0 0 1 40.6 0 20.5 20.5 0 0 1 -.9 5.6z"
              fill="#1d1d1b"/>
        <path d="m45.9 30.1h-8.4v-4h3.2v-2.2h-5.1v6.2h-3.3v-6.1h-5.2v2.2h3.4v3.9h-4.4s-2.2 0-2.2-1.1-.2 1.1-2.7 1.1h-2.5a16.8 16.8 0 0 0 13.7 7 16.3 16.3 0 0 0 13.5-7m-10.4-9.5h6.6a2.9 2.9 0 0 1 3 3v2.4h2.3s.8-.1.9-.5a17.2 17.2 0 0 0 .8-5.2 16.8 16.8 0 0 0 -33.5 0 18.6 18.6 0 0 0 .6 4.8 4.2 4.2 0 0 0 .5 1h3.2v-5.5h3.9v1a2.4 2.4 0 0 1 .9-.8 4.4 4.4 0 0 1 1.5-.2h6.3a1.4 1.4 0 0 1 1.5 1.2 1.3 1.3 0 0 1 1.5-1.2z"
              fill="#ec6309"/>
    </g>
</svg>