<svg viewBox="0 0 795.24711 363.2671" xmlns="http://www.w3.org/2000/svg">
    <g fill="#1d1d1b">
        <path d="m210.38479 81.2798h18.37311v199.2901h-18.37311z"/>
        <path d="m431.812 0-178.565 178.556 184.721 184.711h-23.991l-172.733-172.706-11.988-11.981 12.01-12 166.574-166.58z"/>
        <g fill-rule="evenodd">
            <path d="m342.47469 184.9849v-7.6582h28.81831v7.6582zm-15.6582 22.6035v-52.0058h46.4257v9.0869h-37.4199v33.8291h37.4883v9.0898z"/>
            <path d="m394.27449 169.5337v38.0547h-8.6612v-47.209a5.89844 5.89844 0 0 1 1.2188-3.9375 4.29513 4.29513 0 0 1 3.42582-1.4961 4.59235 4.59235 0 0 1 1.93548.4229 7.06994 7.06994 0 0 1 1.93952 1.4297l36.68648 36.4101v-38.0478h8.6514v47.6347a5.7558 5.7558 0 0 1 -1.2872 4.0079 4.00115 4.00115 0 0 1 -3.2099 1.4267 5.81514 5.81514 0 0 1 -4.1543-1.9267z"/>
            <path d="m483.12109 198.4986a15.71047 15.71047 0 0 0 15.0069-10.2227 18.62075 18.62075 0 0 0 1.2236-6.7978 18.12018 18.12018 0 0 0 -1.2236-6.7295 15.144 15.144 0 0 0 -3.4268-5.3565 14.68782 14.68782 0 0 0 -5.1494-3.4306 15.85611 15.85611 0 0 0 -6.4307-1.292h-21.1064v33.8291zm-30.11518 9.0898v-52.0058h30.11518a27.23867 27.23867 0 0 1 10.1524 1.8603 23.09338 23.09338 0 0 1 13.2305 13.3018 26.44935 26.44935 0 0 1 1.9296 10.3047 28.03927 28.03927 0 0 1 -1.9296 10.5156 25.49507 25.49507 0 0 1 -5.2247 8.4394 24.99242 24.99242 0 0 1 -8.0058 5.5772 25.36559 25.36559 0 0 1 -10.1524 2.0068z"/>
            <path d="m567.09179 155.5826h8.876v29.0468a31.99056 31.99056 0 0 1 -1.5761 10.5108 17.23074 17.23074 0 0 1 -4.9444 7.3681 21.47794 21.47794 0 0 1 -8.7197 4.3614 49.939 49.939 0 0 1 -12.8711 1.4306 50.50136 50.50136 0 0 1 -12.8779-1.4306 21.57319 21.57319 0 0 1 -8.6543-4.3614 17.15052 17.15052 0 0 1 -4.9346-7.3681 31.84169 31.84169 0 0 1 -1.5713-10.5108v-29.0468h9.3711v29.0468a21.42559 21.42559 0 0 0 .9297 6.7237 10.36089 10.36089 0 0 0 3.1416 4.5761 14.5274 14.5274 0 0 0 5.8662 2.6436 52.11254 52.11254 0 0 0 18.0234 0 13.83609 13.83609 0 0 0 5.792-2.6436 9.73138 9.73138 0 0 0 3.1534-4.5761 20.16234 20.16234 0 0 0 .996-6.7237z"/>
            <path d="m588.90829 207.5884v-9.0898h38.99119a7.69813 7.69813 0 0 0 5.5771-1.8594 6.40418 6.40418 0 0 0 2.0078-4.9346 6.1025 6.1025 0 0 0 -2.0078-5.0068 8.13316 8.13316 0 0 0 -5.5771-1.7129h-23.8897a19.59394 19.59394 0 0 1 -6.6523-1.0732 15.37321 15.37321 0 0 1 -5.00689-3.0801 14.34089 14.34089 0 0 1 -3.1425-4.7168 15.91938 15.91938 0 0 1 -1.085-5.9365 16.15735 16.15735 0 0 1 1.0107-5.7969 12.80007 12.80007 0 0 1 3.07912-4.6465 14.3678 14.3678 0 0 1 5.07617-3.0068 19.10308 19.10308 0 0 1 6.8682-1.1455h37.3369v9.0869h-37.3369a6.61522 6.61522 0 0 0 -4.874 1.7158 7.16995 7.16995 0 0 0 0 9.3037 6.855 6.855 0 0 0 4.8007 1.6377h23.8155q7.93935 0 12.0175 3.7227 4.14555 3.7236 4.1485 11.3007a18.0197 18.0197 0 0 1 -1.001 6.083 13.27924 13.27924 0 0 1 -3.0098 4.8604 13.96914 13.96914 0 0 1 -5.0713 3.1514 19.92586 19.92586 0 0 1 -7.0839 1.1435z"/>
            <path d="m673.252 207.588v-42.919h-19.74v-9.086h48.559v9.086h-19.737v42.919z"/>
            <path d="m761.09178 207.5884-13.1572-14.4492h-19.4551v-8.0117h21.669q4.9482 0 7.4492-2.6446c1.6533-1.8164 2.502-4.4101 2.502-7.7978 0-3.3897-.878-5.8867-2.6455-7.5107q-2.5767-2.505-7.3057-2.5049h-28.3213v42.9189h-9.0098v-52.0058h37.3311a21.68188 21.68188 0 0 1 7.9433 1.3623 15.64331 15.64331 0 0 1 5.9366 3.7949 16.17918 16.17918 0 0 1 3.7256 5.9336 22.64814 22.64814 0 0 1 1.2812 7.8672 19.87545 19.87545 0 0 1 -2.8516 10.9482 15.72781 15.72781 0 0 1 -7.875 6.2881l15.6651 15.8115z"/>
            <path d="m783.92091 207.5884v-33.165h9.087v33.165zm0-39.2041v-12.8017h9.087v12.8017z"/>
            <path d="m553.291 156.336v23.642l-.31.174h-8.596l-.32-.174v-23.642l.32-.178h8.596z"/>
        </g>
        <path d="m765.24608 248.7232v-12.0166h3.2989v12.0166zm0-13.8555v-5.0224h3.2989v5.0224zm-15.48917 13.8555v-15.5762h-7.16313v-3.3017h17.624v3.3017h-7.1621v15.5762zm-14.71883 0-2.82317-4.7539h-8.93073l1.5518-2.6651h5.793l-4.20707-7.0673-8.56833 14.4863h-3.7598l10.8496-18.0654a2.36679 2.36679 0 0 1 .6729-.7774 1.513 1.513 0 0 1 .9375-.29 1.42435 1.42435 0 0 1 .914.29 2.36679 2.36679 0 0 1 .6729.7774l10.874 18.0654zm-27.7929 0-3.6084-13.2588-5.3506 12.2793a2.70555 2.70555 0 0 1 -.707.9404 1.50541 1.50541 0 0 1 -.9776.3008 1.76659 1.76659 0 0 1 -1.6982-1.2412l-5.3164-12.2793-3.6143 13.2588h-3.2402l4.8652-17.751a1.54909 1.54909 0 0 1 1.6299-1.3545 1.75488 1.75488 0 0 1 .9629.2881 1.70581 1.70581 0 0 1 .6963.833l5.8232 13.3447 5.8125-13.3447a1.62766 1.62766 0 0 1 1.5811-1.1211 1.57724 1.57724 0 0 1 1.5849 1.3545l4.8262 17.751zm-38.0869-3.2822a6.17977 6.17977 0 0 0 2.3955-.4766 5.53265 5.53265 0 0 0 1.8652-1.2764 5.62506 5.62506 0 0 0 1.2568-1.9726 6.86678 6.86678 0 0 0 .4434-2.4658 6.64151 6.64151 0 0 0 -.4434-2.4356l3.4766-.1074a10.97134 10.97134 0 0 1 .2656 2.3906 10.34038 10.34038 0 0 1 -.708 3.8135 8.88907 8.88907 0 0 1 -4.835 5.0879 9.254 9.254 0 0 1 -3.7167.7246h-4.585a9.22808 9.22808 0 0 1 -3.667-.7246 9.48451 9.48451 0 0 1 -2.8965-2.0205 9.28344 9.28344 0 0 1 -1.91987-3.0674 10.22955 10.22955 0 0 1 -.67873-3.8135 10.99435 10.99435 0 0 1 .2412-2.3906h3.5244a6.9002 6.9002 0 0 0 -.0293 5.0088 5.84379 5.84379 0 0 0 1.2178 1.9726 5.7111 5.7111 0 0 0 1.8457 1.2764 6.104 6.104 0 0 0 2.3623.4766zm4.2607-10.5801a5.26268 5.26268 0 0 0 -1.8652-1.2422 5.92249 5.92249 0 0 0 -2.3955-.4717h-4.585a5.84561 5.84561 0 0 0 -2.3623.4717 5.418 5.418 0 0 0 -1.8457 1.2422h-4.0899a8.19447 8.19447 0 0 1 1.7344-2.4649 8.49027 8.49027 0 0 1 2.8965-1.873 9.84223 9.84223 0 0 1 3.667-.6777h4.585a9.98755 9.98755 0 0 1 3.746.6777 8.33993 8.33993 0 0 1 4.6192 4.3379zm-39.7422.0459v13.8164h-3.13178v-17.1319a2.14878 2.14878 0 0 1 .4433-1.4306 1.54 1.54 0 0 1 1.2412-.543 1.613 1.613 0 0 1 .6963.1582 2.44486 2.44486 0 0 1 .708.5117l13.3184 13.2266v-13.8232h3.1416v17.3017a2.084 2.084 0 0 1 -.4648 1.4473 1.46185 1.46185 0 0 1 -1.169.5254 2.11764 2.11764 0 0 1 -1.5078-.7061zm-22.5478 8.5791v-3.1875h7.58a3.58542 3.58542 0 0 0 2.7002-.9942 3.49142 3.49142 0 0 0 .9912-2.5976 3.437 3.437 0 0 0 -.9912-2.5967 3.64717 3.64717 0 0 0 -2.7002-.9629h-9.9863v15.5762h-3.2695v-18.8779h13.25582a7.94134 7.94134 0 0 1 2.9063.496 5.82741 5.82741 0 0 1 2.1894 1.3575 5.57849 5.57849 0 0 1 1.3506 2.1006 7.96191 7.96191 0 0 1 .461 2.7988 8.0819 8.0819 0 0 1 -.461 2.8056 6.148 6.148 0 0 1 -1.3506 2.1553 6.22763 6.22763 0 0 1 -2.1894 1.4307 8.06455 8.06455 0 0 1 -2.9063.4961zm-61.95707 5.2373v-18.8779h3.293v18.8779zm15.55858 0-10.5703-8.3047a1.85763 1.85763 0 0 1 -.5752-.6436 2.37174 2.37174 0 0 1 -.0976-.7314 1.78 1.78 0 0 1 .1464-.7803 2.0983 2.0983 0 0 1 .6787-.7246l9.9942-7.6933h5.0683l-12.3574 9.2255 12.7491 9.6524zm-24.9697 0v-12.0166h3.2939v12.0166zm0-13.8555v-5.0224h3.2939v5.0224zm-21.2051 13.8555v-18.8779h3.291v15.5957h12.71v3.2822zm-14.5849-3.2822a6.21017 6.21017 0 0 0 2.3906-.4766 5.65518 5.65518 0 0 0 1.8711-1.2764 5.75455 5.75455 0 0 0 1.2509-1.9726 6.86526 6.86526 0 0 0 .43752-2.4658 6.64062 6.64062 0 0 0 -.43752-2.4356 5.63412 5.63412 0 0 0 -1.2509-1.9531 5.37444 5.37444 0 0 0 -1.8711-1.2422 5.94889 5.94889 0 0 0 -2.3906-.4717h-4.5997a5.79095 5.79095 0 0 0 -2.3515.4717 5.44189 5.44189 0 0 0 -1.8516 1.2422 5.87262 5.87262 0 0 0 -1.2178 1.9267 6.69926 6.69926 0 0 0 -.4365 2.462 6.86706 6.86706 0 0 0 .4365 2.4658 6.00368 6.00368 0 0 0 1.2178 1.9726 5.736 5.736 0 0 0 1.8516 1.2764 6.04666 6.04666 0 0 0 2.3515.4766zm-4.5997 3.2822a9.20084 9.20084 0 0 1 -3.65718-.7246 9.592 9.592 0 0 1 -2.90722-2.0205 9.30025 9.30025 0 0 1 -1.9199-3.0674 10.55261 10.55261 0 0 1 -.6778-3.8135 10.284 10.284 0 0 1 .6778-3.7949 8.33158 8.33158 0 0 1 1.9199-2.9063 8.58209 8.58209 0 0 1 2.90722-1.873 9.813 9.813 0 0 1 3.65718-.6777h4.5997a10.01679 10.01679 0 0 1 3.7412.6777 8.29575 8.29575 0 0 1 4.831 4.834 10.143 10.143 0 0 1 .67292 3.7402 10.355 10.355 0 0 1 -.69242 3.8135 9.02925 9.02925 0 0 1 -4.8311 5.0879 9.36926 9.36926 0 0 1 -3.7216.7246zm-17.664 0-4.7774-5.2373h-7.0605v-2.9131h7.8662a3.55413 3.55413 0 0 0 2.6992-.9512 4.08689 4.08689 0 0 0 .9092-2.834 3.53132 3.53132 0 0 0 -.96288-2.7275 3.6084 3.6084 0 0 0 -2.64552-.9131h-10.2803v15.5762h-3.2793v-18.8779h13.5596a7.90864 7.90864 0 0 1 2.8809.496 5.69553 5.69553 0 0 1 2.1552 1.3848 5.80615 5.80615 0 0 1 1.3555 2.1524 8.401 8.401 0 0 1 .4668 2.8554 7.20818 7.20818 0 0 1 -1.041 3.9746 5.69322 5.69322 0 0 1 -2.8623 2.2813l5.6943 5.7334zm-32.0694-3.2822a5.90788 5.90788 0 0 0 2.32722-.4766 5.56414 5.56414 0 0 0 1.86128-1.2764 5.63232 5.63232 0 0 0 1.2471-1.9726 6.58491 6.58491 0 0 0 .4414-2.4658 6.37194 6.37194 0 0 0 -.4414-2.4356 5.51553 5.51553 0 0 0 -1.2471-1.9531 5.29 5.29 0 0 0 -1.86128-1.2422 5.65918 5.65918 0 0 0 -2.32722-.4717h-7.6689v12.294zm-10.9423 3.2822v-18.8779h10.9423a9.82162 9.82162 0 0 1 3.6729.6777 8.38841 8.38841 0 0 1 4.8066 4.834 9.68848 9.68848 0 0 1 .7022 3.7402 10.27768 10.27768 0 0 1 -.7022 3.8135 8.85857 8.85857 0 0 1 -8.4795 5.8125zm-9.4121 0v-12.0166h3.2949v12.0166zm0-13.8555v-5.0224h3.2949v5.0224zm-24.61038 13.9356v-18.958h3.29388v18.958zm15.18948 0v-8.1954h-9.4942v-2.9414h9.4942v-7.8212h3.3046v18.958zm370.34272-.0801-10.56543-8.3047a1.77006 1.77006 0 0 1 -.5645-.6436 2.3715 2.3715 0 0 1 -.1084-.7314 1.85 1.85 0 0 1 .1573-.7803 2.142 2.142 0 0 1 .6777-.7246l9.99613-7.6933h5.0605l-12.35541 9.2255 12.74413 9.6524zm-15.54293 0v-18.8779h3.2988v18.8779z"/>
        <path d="m580.04199 238.9361h13.875v1.4433h-13.875z"/>
        <path d="m105.2066 81.0396h99.49949l-10.76759 17.4033h-85.3769c-55.4556 0-88.7041 36.9756-88.7041 82.3887 0 45.7724 32.2353 82.7265 88.7041 82.7265h85.3974l10.69929 17.7559h-99.45169c-63.8545 0-105.2066-43.5273-105.2066-100.2891 0-57.0527 41.3653-99.9853 105.2066-99.9853z"/>
    </g>
</svg>